<svg width="64" height="64" viewBox="0 0 64 64" fill="none" xmlns="http://www.w3.org/2000/svg">
<path d="M47.6994 39.2222C45.0487 35.7062 39.8472 33.1086 35.3859 32.1605C39.247 30.7877 42.0078 27.1531 42.0078 22.8765C42.0078 17.4346 37.5165 13 32.0049 13C26.4933 13 22.002 17.4346 22.002 22.8765C22.002 27.1531 24.7728 30.7877 28.6239 32.1605C24.1526 33.1086 18.9511 35.7161 16.3004 39.2321C15.13 40.7926 15 42.6889 15 43.9926V45.4444L15.2101 45.7111C15.4501 46.0074 21.1318 53 32.0049 53C42.8781 53 48.5497 46.0074 48.7898 45.7111L48.9998 45.4444V44.0222C49.0098 41.9481 48.5997 40.4272 47.6994 39.2321V39.2222ZM24.0126 22.8765C24.0126 18.521 27.6036 14.9753 32.0149 14.9753C36.4262 14.9753 40.0172 18.521 40.0172 22.8765C40.0172 27.2321 36.4262 30.7778 32.0149 30.7778C27.6036 30.7778 24.0126 27.2321 24.0126 22.8765ZM47.0092 44.7333C45.9289 45.9185 40.7774 51.0247 32.0149 51.0247C23.2524 51.0247 18.0909 45.9185 17.0106 44.7333V43.9926C17.0106 42.3827 17.3007 41.237 17.9208 40.4173C20.8817 36.4864 27.7237 33.7407 32.0149 33.7407C36.3062 33.7407 43.1381 36.4765 46.099 40.4074C46.7292 41.2469 47.0192 42.3926 47.0092 44.0123V44.7333Z" fill="white"/>
<path d="M32 61C16.01 61 3 47.99 3 32C3 16.01 16.01 3 32 3C47.99 3 61 16.01 61 32C61 47.99 47.99 61 32 61ZM32 5C17.11 5 5 17.11 5 32C5 46.89 17.11 59 32 59C46.89 59 59 46.89 59 32C59 17.11 46.89 5 32 5Z" fill="white"/>
</svg>
