<svg width="64" height="64" viewBox="0 0 64 64" fill="none" xmlns="http://www.w3.org/2000/svg">
<path d="M61 47.4224V3H3V47.4224H21.9818V52.9099L16.0447 57.2267C15.296 57.7702 15.0007 58.69 15.2855 59.5576C15.5702 60.4356 16.3611 61 17.2891 61H46.7109C47.6389 61 48.4193 60.4356 48.7145 59.5576C48.9993 58.6796 48.7145 57.7702 47.9553 57.2267L42.0182 52.9099V47.4224H61ZM5.10909 5.09047H58.8909V45.332H5.10909V5.09047ZM46.7109 58.92H17.2891L24.0909 53.976V47.4224H39.9091V53.976L46.7109 58.92Z" fill="white"/>
<path d="M24.9242 17.5422L16.8042 25.6728L24.9242 33.8033L26.4217 32.3059L19.778 25.6728L26.4217 19.0397L24.9242 17.5422Z" fill="white"/>
<path d="M34.1592 17.9596L28.8855 33.7759L30.8863 34.4431L36.16 18.6267L34.1592 17.9596Z" fill="white"/>
<path d="M40.1308 17.5422L38.6333 19.0397L45.2769 25.6728L38.6333 32.3059L40.1308 33.8033L48.2508 25.6728L40.1308 17.5422Z" fill="white"/>
</svg>
