<svg width="64" height="64" viewBox="0 0 64 64" fill="none" xmlns="http://www.w3.org/2000/svg">
<path d="M26.9725 53.9899H21.0925C19.9825 53.9899 19.0225 53.2018 18.8125 52.1006L17.8425 47.0994C16.4225 46.5336 15.1025 45.7759 13.9025 44.8565L9.01254 46.5336C7.97254 46.8974 6.81254 46.473 6.24254 45.5233L3.31254 40.4817C2.75254 39.5219 2.96254 38.2893 3.80254 37.5619L7.69254 34.2278C7.58254 33.4599 7.53254 32.7224 7.53254 31.9848C7.53254 31.2473 7.58254 30.4693 7.69254 29.7419L3.81254 26.428C2.96254 25.6905 2.75254 24.4579 3.31254 23.498L6.26254 18.4767C6.82254 17.527 7.98254 17.0925 9.02254 17.4462L13.9225 19.1334C15.1325 18.2039 16.4525 17.4462 17.8625 16.8905L18.8325 11.8792C19.0425 10.7881 20.0025 10 21.1125 10H26.9925C28.1125 10 29.0725 10.7982 29.2625 11.8893L30.2425 16.9309C31.6225 17.4967 32.9125 18.2342 34.1025 19.1435L39.0725 17.436C40.1125 17.0824 41.2725 17.5169 41.8325 18.4565L44.7725 23.4879C45.3225 24.4579 45.1125 25.6905 44.2725 26.4179L39.8725 30.1865L38.5825 28.6406L42.9825 24.8721C43.0925 24.7812 43.1225 24.6195 43.0525 24.4983L40.1225 19.487C40.0425 19.3557 39.8725 19.2951 39.7225 19.3456L33.7225 21.4067L33.2925 21.053C32.0125 20.0023 30.5825 19.1839 29.0425 18.608L28.5125 18.4161L27.3125 12.253C27.2825 12.1116 27.1525 12.0106 27.0025 12.0106H21.1225C20.9725 12.0106 20.8325 12.1116 20.8025 12.253L19.6125 18.3858L19.0725 18.5777C17.5025 19.1334 16.0525 19.9619 14.7525 21.0328L14.3225 21.3865L8.38254 19.3456C8.23254 19.2951 8.06254 19.3557 7.98254 19.487L5.03254 24.5084C4.96254 24.6296 4.99254 24.7711 5.10254 24.8721L9.86254 28.9336L9.75254 29.5095C9.60254 30.3077 9.53254 31.1362 9.53254 31.9747C9.53254 32.8133 9.60254 33.5812 9.75254 34.4501L9.85254 35.0259L5.09254 39.0976C4.99254 39.1885 4.96254 39.3401 5.03254 39.4512L7.96254 44.4827C8.04254 44.6039 8.21254 44.6645 8.36254 44.614L14.2925 42.5832L14.7225 42.9369C16.0025 43.9876 17.4625 44.8161 19.0525 45.392L19.5825 45.5839L20.7725 51.7065C20.8025 51.848 20.9425 51.9591 21.0925 51.9591H26.9725C27.1225 51.9591 27.2525 51.8581 27.2725 51.7166L28.4725 45.5334L29.0025 45.3414C30.5425 44.7858 31.9625 43.9674 33.2525 42.9166L33.6825 42.563L39.6825 44.614C39.8425 44.6645 40.0025 44.614 40.0825 44.4827L43.0225 39.4512C43.0925 39.33 43.0625 39.1986 42.9525 39.1077L38.5625 35.3391L39.8525 33.8034L44.2425 37.572C45.1025 38.2994 45.3225 39.532 44.7425 40.502L41.8125 45.5233C41.2525 46.4831 40.0825 46.9075 39.0425 46.5437L34.0825 44.8565C32.8925 45.7658 31.6025 46.5134 30.2225 47.0691L29.2425 52.1309C29.0525 53.2119 28.0925 54.0202 26.9725 54.0202V53.9899Z" fill="white"/>
<path d="M24.0429 44.6747C17.1029 44.6747 11.4629 38.9866 11.4629 31.9849C11.4629 24.9833 17.1029 19.2952 24.0429 19.2952C29.9629 19.2952 35.0129 23.3668 36.3129 29.1964L34.3629 29.641C33.2929 24.8217 28.9529 21.3158 24.0529 21.3158C18.2229 21.3158 13.4729 26.1048 13.4729 31.9849C13.4729 37.8651 18.2229 42.6541 24.0529 42.6541C28.9629 42.6541 33.2929 39.1583 34.3629 34.3289L36.3129 34.7735C35.0429 40.5122 29.8829 44.6747 24.0429 44.6747Z" fill="white"/>
<path d="M57.0425 35.8141C54.8725 35.8141 53.1025 34.0258 53.1025 31.8232C53.1025 29.6207 54.8725 27.8425 57.0425 27.8425C59.2125 27.8425 60.9925 29.6308 60.9925 31.8232C60.9925 34.0157 59.2225 35.8141 57.0425 35.8141ZM57.0425 29.8632C55.9725 29.8632 55.1025 30.7422 55.1025 31.8232C55.1025 32.9043 55.9725 33.7934 57.0425 33.7934C58.1125 33.7934 58.9925 32.9043 58.9925 31.8232C58.9925 30.7422 58.1125 29.8632 57.0425 29.8632Z" fill="white"/>
<path d="M58 25.9802V24C53.6418 24 50.042 27.099 49.5567 31.0792H27.9681C27.513 29.3762 25.9457 28.1089 24.0548 28.1089C21.8201 28.1089 20 29.8812 20 32.0693C20 34.2574 21.8201 36.0396 24.0548 36.0396C25.9356 36.0396 27.513 34.7723 27.9681 33.0594H49.5769C50.1331 36.9703 53.6924 40 58 40V38.0198C54.4305 38.0198 51.5184 35.3168 51.5184 32C51.5184 28.6832 54.4305 25.9802 58 25.9802ZM24.0548 34.0594C22.9324 34.0594 22.0224 33.1683 22.0224 32.0693C22.0224 30.9703 22.9324 30.0891 24.0548 30.0891C25.1772 30.0891 26.0873 30.9802 26.0873 32.0693C26.0873 33.1584 25.1772 34.0594 24.0548 34.0594Z" fill="white"/>
</svg>
