<svg width="64" height="64" viewBox="0 0 64 64" fill="none" xmlns="http://www.w3.org/2000/svg">
<path d="M50.9062 47.28C53.9074 45.96 56.0081 42.97 56.0081 39.5C56.0081 34.81 52.1967 31 47.505 31C42.8133 31 39.0018 34.81 39.0018 39.5C39.0018 42.98 41.1026 45.97 44.1037 47.28C38.2316 48.24 34 51.64 34 55.82V61H61V55.82C61.01 51.65 56.7784 48.25 50.9163 47.28H50.9062ZM41.0026 39.5C41.0026 35.92 43.9237 33 47.505 33C51.0863 33 54.0074 35.92 54.0074 39.5C54.0074 43.08 51.0863 46 47.505 46C43.9237 46 41.0026 43.08 41.0026 39.5ZM58.9992 59H36.0007V55.82C36.0007 52.12 41.2727 49 47.505 49C53.7373 49 59.0092 52.12 59.0092 55.82V59H58.9992Z" fill="white"/>
<path d="M22.71 40L17.2 29.7304C16.85 29.0787 16.18 29 15.43 29H7C4.79 29 3 26.9162 3 24.7339V6.94983C3 4.76755 4.79 3 7 3H37C39.21 3 41 4.76755 41 6.94983V24.724C41 26.9063 39.21 29 37 29H24.65V27H37C38.1 27 39 25.8102 39 24.724V6.94983C39 5.86362 38.1 4.97491 37 4.97491H7C5.9 4.97491 5 5.86362 5 6.94983V24.724C5 25.8102 5.9 27 7 27H15.43C16.91 27 18.27 27.5087 18.96 28.8022L24.47 39.0718L22.7 40H22.71Z" fill="white"/>
<path d="M15 14H13C12.4477 14 12 14.4477 12 15V17C12 17.5523 12.4477 18 13 18H15C15.5523 18 16 17.5523 16 17V15C16 14.4477 15.5523 14 15 14Z" fill="white"/>
<path d="M23 14H21C20.4477 14 20 14.4477 20 15V17C20 17.5523 20.4477 18 21 18H23C23.5523 18 24 17.5523 24 17V15C24 14.4477 23.5523 14 23 14Z" fill="white"/>
<path d="M31 14H29C28.4477 14 28 14.4477 28 15V17C28 17.5523 28.4477 18 29 18H31C31.5523 18 32 17.5523 32 17V15C32 14.4477 31.5523 14 31 14Z" fill="white"/>
<path d="M50.9062 47.28C53.9074 45.96 56.0081 42.97 56.0081 39.5C56.0081 34.81 52.1967 31 47.505 31C42.8133 31 39.0018 34.81 39.0018 39.5C39.0018 42.98 41.1026 45.97 44.1037 47.28C38.2316 48.24 34 51.64 34 55.82V61H61V55.82C61.01 51.65 56.7784 48.25 50.9163 47.28H50.9062ZM41.0026 39.5C41.0026 35.92 43.9237 33 47.505 33C51.0863 33 54.0074 35.92 54.0074 39.5C54.0074 43.08 51.0863 46 47.505 46C43.9237 46 41.0026 43.08 41.0026 39.5ZM58.9992 59H36.0007V55.82C36.0007 52.12 41.2727 49 47.505 49C53.7373 49 59.0092 52.12 59.0092 55.82V59H58.9992Z" fill="white"/>
<path d="M22.71 40L17.2 29.7304C16.85 29.0787 16.18 29 15.43 29H7C4.79 29 3 26.9162 3 24.7339V6.94983C3 4.76755 4.79 3 7 3H37C39.21 3 41 4.76755 41 6.94983V24.724C41 26.9063 39.21 29 37 29H24.65V27H37C38.1 27 39 25.8102 39 24.724V6.94983C39 5.86362 38.1 4.97491 37 4.97491H7C5.9 4.97491 5 5.86362 5 6.94983V24.724C5 25.8102 5.9 27 7 27H15.43C16.91 27 18.27 27.5087 18.96 28.8022L24.47 39.0718L22.7 40H22.71Z" fill="white"/>
<path d="M15 14H13C12.4477 14 12 14.4477 12 15V17C12 17.5523 12.4477 18 13 18H15C15.5523 18 16 17.5523 16 17V15C16 14.4477 15.5523 14 15 14Z" fill="white"/>
<path d="M23 14H21C20.4477 14 20 14.4477 20 15V17C20 17.5523 20.4477 18 21 18H23C23.5523 18 24 17.5523 24 17V15C24 14.4477 23.5523 14 23 14Z" fill="white"/>
<path d="M31 14H29C28.4477 14 28 14.4477 28 15V17C28 17.5523 28.4477 18 29 18H31C31.5523 18 32 17.5523 32 17V15C32 14.4477 31.5523 14 31 14Z" fill="white"/>
</svg>
