<svg width="50" height="50" viewBox="0 0 50 50" fill="none" xmlns="http://www.w3.org/2000/svg">
<circle cx="24.6802" cy="24.6802" r="24.6802" fill="#FF4438"/>
<g clip-path="url(#clip0_1284_838)">
<path d="M37.5968 26.0553C35.5948 28.5611 33.4326 31.4249 29.1083 31.4249C25.2457 31.4249 23.8067 28.0405 23.7056 25.2911C24.5518 27.0688 26.2064 28.5084 28.788 28.4418C33.7529 28.2827 37.1563 23.8279 37.1563 19.7708C37.1563 14.9182 33.5127 11.418 27.1864 11.418C22.6619 11.418 17.0563 13.1283 13.3727 15.833C13.3326 18.6173 14.8942 22.2368 15.4547 21.8391C18.6482 19.5582 21.1805 18.0898 23.6367 17.3536C20.0009 21.3812 11.2776 30.7332 10.2095 32.3795C10.3296 33.891 12.2115 37.9481 13.1324 37.9481C13.4127 37.9481 13.6529 37.789 13.9332 37.5106C16.5631 34.5752 18.707 31.9434 20.6139 29.4068C20.8816 33.1246 22.722 37.6697 27.8671 37.6697C32.4717 37.6697 37.0362 34.3683 39.1183 26.9303C39.3585 26.0155 38.2374 25.2995 37.5968 26.0553ZM32.3515 20.0492C32.3515 22.3959 30.0292 23.5494 27.9071 23.5494C26.7728 23.5494 25.9014 23.2535 25.2123 22.8691C26.4803 20.9617 27.7354 19.006 29.084 16.9123C31.4618 17.3121 32.3515 18.625 32.3515 20.0492Z" fill="white"/>
</g>
<defs>
<clipPath id="clip0_1284_838">
<rect width="28.9419" height="26.5301" fill="white" transform="translate(10.2095 11.416)"/>
</clipPath>
</defs>
</svg>
